Patient4_TMGait_0pt5_01_left_41_EMG.mot
version=1
nRows=33
nColumns=33
inDegrees=no
endheader
time	1LAddLong	2LGlutMax	3LGlutMed	4LIliopsoas	5LSemiMemb	6LBicFemLong	7LRecFem	8LVastMed	9LVastLat	10LGasMed	11LTibAnt	12lTibPost	13LPeroneusLong	14LSol	15LExtDigLong	16LFlexDigLong	17RAddLong	18RGlutMax	19RGlutMed	20RIliopsoas	21RSemiMemb	22RBicFemLong	23RRecFem	24RVastMed	25RVastLat	26RGasMed	27RTibAnt	28RTibPost	29RPeroneusLong	30RSol	31RExtDigLong	32RFlexDigLong
56.018	0.010986	0.011444	-0.023041	0.007477	0.01297	-0.025024	0.060425	0.023651	0.24002	-0.055389	0.082245	0.015564	-0.020599	-0.037384	0.22476	0.000305	0.021973	-0.18341	0.042419	0.17334	-0.038757	-0.11261	0.26367	-0.13092	0.006714	-0.012665	0.73959	-0.008392	2.5722	-0.067749	0.005341	-0.011749
56.019	0.005798	-0.020142	-0.039063	0.001526	0.023346	-0.022583	0.046082	-0.020905	0.23331	0.010529	-0.016022	0.013885	0.083313	-0.037384	0.31204	-0.000305	0.002747	-0.16556	0.14816	0.10162	-0.03006	-0.052948	0.18921	-0.2272	-0.083466	-0.001068	-0.06134	0.001068	1.7894	-0.16571	-0.001221	-0.001221
56.02	0.005188	-0.050049	-0.053253	0.006409	0.023804	-0.04837	0.047455	0.020599	0.23407	0.068207	-0.027771	0.032654	0.12039	-0.080261	0.17425	-0.001831	-0.01297	-0.22858	0.06424	0.022278	0.030823	-0.061646	-0.11353	-0.24628	-0.19623	-0.007019	-0.89645	-0.002899	0.86655	-0.1738	0.004272	0.001678
56.021	0.008698	-0.056915	-0.069122	0.024414	0.017548	-0.004272	0.0383	0.027466	0.22659	0.088806	-0.04425	0.001221	0.074463	-0.10773	0.080414	-0.007019	-0.025024	-0.1857	0.16068	-0.029602	0.008392	-0.082397	-0.50674	-0.21545	-0.17502	-0.008545	-0.91827	-0.002899	0.34409	-0.1799	0.007019	0.000458
56.022	0.00885	-0.031738	-0.063934	0.016479	0.009308	-0.006104	0.037537	0.020752	0.2182	0.019379	-0.046387	0.00885	0.080261	-0.09552	-0.057983	0.00351	-0.00351	-0.11353	0.21286	-0.072021	-0.033417	-0.13473	-0.41596	-0.12299	-0.040741	-0.010529	-0.82916	-0.005493	1.1946	-0.22018	0.004272	-0.002136
56.023	0.006104	-0.049438	-0.07431	0.001984	0.005035	-0.001526	0.027008	0.021667	0.22079	-0.028381	0.018158	0.002747	0.057526	-0.040283	-0.1033	-0.007629	0.015717	-0.11276	0.1294	-0.037384	-0.067291	-0.16693	-0.24628	-0.088806	0.033569	-0.000458	-0.63065	-0.002747	0.86624	-0.0914	0.005798	0.001526
56.024	0.008698	-0.057373	-0.083618	0.009003	-0.003967	0.003815	0.004425	0.016479	0.21332	-0.080872	0.016785	0.003357	0.078735	-0.001678	-0.1059	-0.001373	0.023041	-0.14496	0.033722	0.016022	-0.088501	-0.14923	-0.16617	0.072174	0.15213	0.004883	-0.56915	-0.002136	0.34454	-0.045166	0.003815	-0.003967
56.025	0.016479	-0.039368	-0.085754	-0.002747	-0.010071	-0.004578	-0.006714	0.018616	0.20264	-0.087128	0.014496	0.003967	0.1059	0.011902	-0.18616	-0.001678	0.022125	-0.11688	0.093231	0.14099	-0.071106	-0.16739	-0.11002	0.13046	0.31326	-0.003357	-0.36545	-0.002441	-0.58853	-0.007782	0.005188	-0.004425
56.026	-0.001678	-0.027771	-0.063782	0.007935	0.005646	0.00885	-0.01236	0.020905	0.18814	-0.021667	0.023346	-0.012817	0.06958	0.015564	-0.13962	-0.001068	0.028687	-0.030212	0.23666	0.10346	-0.067902	-0.15152	-0.15152	0.088196	0.41214	-0.002594	-0.079651	-0.002747	-0.59937	0.03952	0.004272	-0.009003
56.027	-0.002594	-0.00946	-0.076904	0.008087	-0.022125	-0.00412	0.002594	0.016022	0.18723	-0.014801	0.12161	-0.005798	0.045776	0.003204	0.11063	-0.00473	0.016632	-0.000916	0.49225	0.047455	-0.091705	-0.12344	-0.15579	0.03952	0.45517	-0.019379	0.019073	-0.00473	-0.29831	0.25528	0.013123	-0.010834
56.028	-0.005951	-0.079193	-0.07431	0.010834	-0.042419	-0.038452	0.014496	0.019379	0.17639	-0.021667	0.14526	-0.012512	0.027924	0.02121	0.07843	0.000763	-0.005493	-0.084229	0.20615	0.052948	-0.11368	-0.16693	-0.10315	0.068665	0.39978	-0.02594	0.10834	-0.012512	0.13886	0.30243	0.002747	-0.011902
56.029	0.009766	-0.072021	-0.005493	0.002289	-0.017242	-0.077972	-0.005035	0.011902	0.17624	-0.048981	0.086975	-0.000763	0.046387	0.022583	0.036774	-0.004425	0.014038	-0.11322	0.016632	-0.023804	0.029297	-0.16739	-0.022736	0.054474	0.29465	-0.023956	0.15823	-0.003357	-0.18326	0.2655	0.003204	-0.00946
56.03	0.009003	-0.057526	-0.035248	0.003357	0.053101	-0.052338	-0.018768	0.010529	0.15564	-0.018311	0.063934	-0.004425	0.025177	0.03418	0.004425	-0.009613	0.007477	-0.090942	-0.13397	-0.059814	0.13016	-0.087128	0.012665	0.033264	0.14404	-0.011292	0.36514	-0.011139	-0.3009	0.19089	0.002747	-0.006409
56.031	0.001984	-0.044098	-0.041199	0.004272	0.039063	-0.001984	-0.005341	0.009308	0.15595	-0.000305	0.075836	-0.006866	0.028687	0.05661	0.14343	-0.001831	0.014343	-0.088654	-0.10925	-0.052643	0.15015	0.046844	0.12054	0.080872	-0.11215	-0.013428	0.35934	-0.004578	0.35217	0.24277	-0.004883	-0.015259
56.032	0.015259	-0.040131	-0.0383	0.008698	0.035248	0.041656	0.000305	0.010376	0.15518	-0.027008	0.069885	0.002899	0.06073	0.009155	0.14252	-0.007782	0.008392	-0.041962	-0.28046	-0.061951	-0.07431	0.10178	0.20676	0.079651	-0.3215	-0.010223	0.26672	-0.002289	1.046	0.34042	0.003204	-0.01236
56.033	-0.000305	-0.044708	-0.035706	-0.002441	0.020142	0.042725	0.001068	0.010071	0.13077	-0.083008	0.057526	0.010529	0.062714	-0.061188	-0.006409	0.015717	-0.022888	-0.16312	-0.31769	-0.051422	-0.16632	0.048981	0.15091	0.072479	-0.48202	0	0.027924	-0.005951	0.45181	0.33646	0.002594	0.005646
56.034	0.004272	-0.059967	-0.035095	-0.005188	-0.022736	0.023956	0.006409	0.007019	0.12665	-0.081177	0.001373	0.005646	0.024414	-0.024109	-0.11963	-0.001984	-0.036316	-0.10605	-0.01358	-0.034332	-0.012817	0.11017	-0.026398	0.068054	-0.35385	0.004272	0.1033	0.000458	-0.74509	0.12543	0.004425	-0.004272
56.035	-0.004578	-0.059357	-0.056305	0.011902	-0.014343	0.00885	-0.004425	0.01297	0.13672	-0.0177	-0.039215	0.001221	0.005646	0.002441	-0.15717	0	-0.028229	-0.021973	0.11765	-0.048523	0.10147	0.17868	-0.000305	0.13825	-0.12116	-0.002136	0.57083	-0.006561	-1.1491	-0.057373	0.001068	-0.00412
56.036	0.006104	-0.085602	-0.076904	0.015411	-0.016327	-0.004272	-0.005951	0.01297	0.12909	0.002136	-0.029297	0.019226	0.040588	-0.004883	-0.12131	0.001221	-0.015564	-0.098419	0.1181	-0.037842	-0.070801	0.091858	0.087128	0.096283	-0.040588	-0.00412	0.50369	0.002747	-1.4865	-0.21759	0.002594	-0.002594
56.037	0.005188	-0.07782	-0.084381	0.005646	-0.01358	-0.011749	0.014343	0.010529	0.12863	0.020294	-0.010681	0.010529	0.031738	-0.00473	-0.10544	0.016632	0.01236	-0.072327	0.16617	-0.12222	-0.095978	-0.008392	0.17792	0.040894	0.004272	-0.003815	0.18799	-0.00351	-0.44327	-0.25253	0.001678	0.007629
56.038	0.010986	-0.076752	-0.060577	-0.006409	-0.002136	-0.002899	-0.006714	0.016022	0.12772	0.035858	0.016785	-0.006866	0.025024	-0.053101	-0.014648	0.010986	0.013123	-0.055084	0.38864	-0.12222	-0.04303	0.074005	0.27863	0.018005	0.086517	-0.004272	0.16663	-0.004425	1.1058	-0.25345	0.004883	0.000305
56.039	0.023041	-0.071564	-0.044403	-0.004883	0.011902	-0.010986	-0.013123	0.00885	0.13077	0.024261	0.026245	-0.000305	0.001984	-0.045776	0.023041	0.002136	-0.00351	-0.003967	0.25559	-0.021667	-0.040741	0.23666	0.4924	-0.040283	0.003357	-0.038452	-0.034943	-0.006561	0.80063	-0.12558	0.001678	-0.002289
56.04	0.016174	-0.085602	-0.043945	0.017242	0.038452	-0.011139	-0.008392	0.002441	0.1239	-0.009766	0.027924	0.016174	0.036774	-0.008545	0.015717	0.003967	-0.027313	-0.013123	0.14801	0.088959	-0.01709	0.27893	0.46402	-0.087585	-0.058289	-0.049438	-0.033264	-0.008698	-0.10864	-0.10025	-0.001678	-0.001678
56.041	0.020294	-0.12268	-0.053101	0.010223	0.023956	0.005646	-0.005035	0.00885	0.10864	-0.007019	0.023499	0.021515	0.032501	0.001984	-0.041351	0.004578	-0.028992	-0.036621	0.058289	0.20218	0.037537	0.29907	0.38895	-0.11581	-0.18616	-0.0383	0.13062	-0.012665	-0.019226	0.006866	0.001678	-0.003357
56.042	0.010223	-0.091248	-0.068054	-0.020142	0.014038	-0.005188	-0.016937	0.00885	0.099335	-0.0177	-0.007477	-0.005951	0.035553	-0.043793	-0.027924	0.003357	-0.03006	-0.049133	0.11383	0.06485	0.057983	0.30395	0.2002	-0.17654	-0.22949	0.001831	0.224	-0.012665	0.51254	0.11292	0.001831	-0.00946
56.043	0.002747	-0.080261	-0.054779	0.002747	-0.006866	-0.00885	-0.001526	0.015106	0.11261	-0.038147	-0.04425	0.011749	0.064545	-0.040741	0.006256	0.001678	-0.036163	0.019073	0.040131	-0.005646	0.053406	0.17364	-0.21088	0.00351	-0.25559	0.024719	0.28992	-0.009003	0.31387	0.20966	-0.003052	-0.013428
56.044	-0.009308	-0.092316	-0.023346	0.007172	-0.010681	-0.025177	-0.010223	0.012665	0.12268	-0.044556	-0.057831	-0.002899	0.092316	-0.031433	0.02121	0.010529	-0.030212	0.034943	0.13825	0.032806	0.040283	0.1506	-0.33752	0.017242	0.011139	0.028534	0.25391	0.003967	-1.5245	0.12665	-0.00473	-0.014191
56.045	-0.011902	-0.063934	-0.024261	0.005341	-0.020142	-0.020447	0.006561	0.01358	0.1207	-0.042419	-0.052185	0.005646	0.07309	-0.022583	-0.012817	0.00473	-0.023346	0.093079	0.37064	-0.003815	0.015869	0.082092	-0.49179	0.048981	0.1918	-0.003357	0.13382	-0.006256	-0.56442	0.14862	0.002594	-0.016937
56.046	0.007019	-0.075531	-0.028839	0.006866	-0.041504	-0.034332	-0.011139	0.01297	0.12543	-0.03006	-0.025787	0.011444	0.041656	-0.001831	0.043488	0.002594	-0.010071	0.052338	0.19089	0.046234	0.014343	0.042267	-0.18967	0.046082	0.15152	-0.031128	-0.09201	-0.012512	0.36438	0.15198	0.001068	-0.014343
56.047	0.016174	-0.057831	-0.031433	0.014954	-0.006104	-0.044098	-0.018768	0.002747	0.13428	-0.029144	-0.012054	0.020447	0.005798	-0.006866	0.068665	0.002747	-0.013428	0.042114	0.17548	0.041656	0.026093	0.002594	-0.000763	0.002594	0.17364	-0.018921	0.14557	-0.008392	-0.22553	0.19608	0.000153	-0.01236
56.048	0.035858	-0.05722	-0.049591	0.018768	0.052643	-0.042877	-0.018005	0.004883	0.13245	-0.047302	0.023651	0.005035	-0.019379	-0.00412	0.066833	0.003204	0.011444	0.031128	0.029602	-0.005341	0.030212	-0.080261	-0.019684	-0.026398	0.15243	0.002289	0.28275	-0.007019	-0.23727	0.10864	-0.006714	-0.013275
56.049	0.031128	-0.083466	-0.067444	0.014191	0.063477	-0.056763	-0.029297	0.010529	0.12955	-0.06958	0.030365	0.002594	0.015717	0.00885	0.046844	0.007629	0.003204	0.041809	0.017242	-0.083923	0.030518	-0.051117	-0.11185	-0.073395	0.06546	0.004272	-0.11826	-0.000153	0.49347	0.024719	-0.007172	-0.003052
56.05	0.009308	-0.0737	-0.073395	-0.001984	0.023651	-0.080261	-0.01297	0.003204	0.13107	-0.088501	0.024567	-0.005035	0.068207	0.036926	0.023651	0.000305	-0.001373	0.024567	0.17853	-0.076447	0.017395	-0.017395	-0.2475	-0.14984	0.098724	0.011902	-0.48691	-0.004425	0.62439	0.005188	0.000458	0.002136
